<?xml version="1.0" encoding="iso-8859-1"?>
<!-- Generator: Adobe Illustrator 18.0.0, SVG Export Plug-In . SVG Version: 6.00 Build 0)  -->
<!DOCTYPE svg PUBLIC "-//W3C//DTD SVG 1.1//EN" "http://www.w3.org/Graphics/SVG/1.1/DTD/svg11.dtd">
<svg xmlns="http://www.w3.org/2000/svg" xmlns:xlink="http://www.w3.org/1999/xlink" version="1.1" id="Capa_1" x="0px" y="0px" viewBox="0 0 296.619 296.619" style="enable-background:new 0 0 296.619 296.619;" xml:space="preserve" width="512px" height="512px">
<path d="M185.689,169.388l1.568-5.326c2.367-8.051,9.674-20.319,15.633-26.251c1.078-1.072,26.42-26.611,26.42-56.649  c0-44.752-36.337-81.161-81-81.161s-81,36.409-81,81.161c0,30.038,25.345,55.577,26.421,56.647  c5.957,5.928,13.265,18.197,15.638,26.255l1.566,5.324c-14.821,2.239-26.352,18.202-26.352,37.512  c0,18.016,20.87,59.345,23.249,63.998c1.283,2.508,3.862,4.085,6.679,4.085c2.816,0,5.396-1.579,6.678-4.087  c0.155-0.304,2.345-4.599,5.326-10.939c7.207,17.064,14.704,31.77,15.117,32.578c1.282,2.507,3.861,4.085,6.678,4.085  s5.395-1.578,6.678-4.085c0.413-0.809,7.911-15.516,15.117-32.579c2.983,6.343,5.175,10.639,5.33,10.941  c1.282,2.508,3.861,4.086,6.678,4.086c2.816,0,5.395-1.578,6.678-4.086c2.379-4.652,23.246-45.981,23.246-63.997  C212.036,187.591,200.508,171.628,185.689,169.388z M104.308,127.173c-0.22-0.219-21.998-22.144-21.998-46.012  c0-36.482,29.607-66.161,66-66.161s66,29.68,66,66.161c0,23.736-21.784,45.8-21.999,46.016c-7.804,7.768-16.345,22.111-19.443,32.65  l-5.668,19.244h-3.388l7.158-55.604h9.471c4.142,0,7.5-3.357,7.5-7.5c0-4.143-3.358-7.5-7.5-7.5h-64.26c-4.143,0-7.5,3.357-7.5,7.5  c0,4.143,3.357,7.5,7.5,7.5h9.47l7.157,55.604h-3.388l-5.662-19.244C120.65,149.276,112.107,134.935,104.308,127.173z   M147.932,179.071l-7.157-55.604h15.071l-7.158,55.604H147.932z M182.124,250.226c-1.749-3.796-3.668-8.099-5.531-12.547  c-1.194-2.852-4.021-4.682-7.11-4.6c-3.092,0.079-5.818,2.048-6.865,4.959c-4.25,11.816-9.929,24.574-14.308,33.915  c-4.379-9.341-10.058-22.097-14.308-33.913c-1.047-2.91-3.772-4.88-6.864-4.959c-3.1-0.083-5.915,1.746-7.11,4.599  c-1.864,4.447-3.783,8.751-5.532,12.546c-7.315-15.918-14.912-35.095-14.912-43.326c0-12.332,7.608-22.752,15.684-22.789  l1.347,4.578c0.94,3.191,3.868,5.383,7.195,5.383h49c3.326,0,6.255-2.19,7.194-5.381l1.349-4.58  c8.074,0.036,15.685,10.456,15.685,22.789C197.036,215.123,189.439,234.303,182.124,250.226z" fill="#FFFFFF"/>
<g>
</g>
<g>
</g>
<g>
</g>
<g>
</g>
<g>
</g>
<g>
</g>
<g>
</g>
<g>
</g>
<g>
</g>
<g>
</g>
<g>
</g>
<g>
</g>
<g>
</g>
<g>
</g>
<g>
</g>
</svg>
